<?xml version="1.0" encoding="iso-8859-1"?>
<!DOCTYPE svg PUBLIC "-//W3C//DTD SVG 1.1//EN" "http://www.w3.org/Graphics/SVG/1.1/DTD/svg11.dtd">
<svg 
 version="1.1" xmlns="http://www.w3.org/2000/svg" xmlns:xlink="http://www.w3.org/1999/xlink" x="0px" y="0px" width="512px"
	 height="512px" viewBox="0 0 512 512" style="enable-background:new 0 0 512 512;" xml:space="preserve"
><g fill="#ffffff" id="afcae5a789ccd549f9c6e2a2f81834be"><g fill="#ffffff"></g><path style="display: inline; evenodd; clip-rule: evenodd;" d="M325.413,260.766c-0.993-6.624,8.524-13.596,21.154-15.502
		l126.543-19.071c12.262-4.637,60.626-29.814,26.275-130.335c-17.089-49.975-196.17-76.368-196.17-76.368
		s-83.282,6.605-152.537,19.97C86.963,51.766,36.816,70.929,36.816,70.929S-4.33,81.54,0.973,146.217
		c3.412,41.65,34.01,71.687,34.01,71.687L40.491,405.3c0,0,2.962,26.743,85.128,59.017
		c102.979,40.457,135.333,25.486,135.333,25.486s70.09-20.506,127.895-39.649c78.429-25.977,79.717-50.37,79.717-50.37
		l1.569-148.513l-119.938,18.073C337.566,271.25,326.411,267.389,325.413,260.766z M301.574,231.926
		c2.509,0,4.927-0.263,7.235-0.726c-10.883,17.379-27.369,21.775-27.369,21.775s-1.116,36.555-3.466,79.38
		c-1.166-0.513-2.396-0.853-3.692-0.853c-6.415,0-11.614,6.76-11.614,15.098s5.199,15.098,11.614,15.098
		c0.671,0,1.315-0.113,1.95-0.254c-1.864,28.39-4.246,56.603-7.186,76.572c-2.713,18.45-15.932,26.992-15.932,26.992
		s-20.097,12.054-76.028-6.496C55.865,418.307,55.421,393.582,55.421,393.582l-1.57-64.369c1.279,5.304,6.106,9.259,11.899,9.259
		c6.773,0,12.262-5.389,12.262-12.04c0-6.655-5.489-12.044-12.262-12.044c-5.965,0-10.929,4.187-12.026,9.73l-2.531-103.91
		c0,0-35.803-24.021-24.833-106.913c4.446-33.516,32.228-33.684,32.228-33.684s76.259-1.706,142.856,14.739
		c69.59,17.175,94.786,42.349,94.786,42.349s23.023,15.415,21.885,59.787c-4.591-2.541-10.312-4.065-16.54-4.065
		c-15.071,0-27.292,8.842-27.292,19.752C274.282,223.084,286.503,231.926,301.574,231.926z M158.146,231.926
		c-6.415,0-11.613-6.31-11.613-14.086c0-7.78,5.199-14.086,11.613-14.086s11.614,6.306,11.614,14.086
		C169.76,225.616,164.561,231.926,158.146,231.926z M220.86,168.333c0,4.809-3.901,8.71-8.71,8.71s-8.71-3.901-8.71-8.71
		c0-4.813,3.901-8.715,8.71-8.715S220.86,163.52,220.86,168.333z M177.89,372.233c0,5.82-4.418,10.538-9.872,10.538
		s-9.872-4.718-9.872-10.538c0-5.816,4.418-10.534,9.872-10.534S177.89,366.417,177.89,372.233z M78.013,149.139
		c0,3.829-3.121,6.937-6.968,6.937c-3.847,0-6.968-3.107-6.968-6.937c0-3.829,3.121-6.936,6.968-6.936
		C74.892,142.203,78.013,145.31,78.013,149.139z"></path></g></svg>