<?xml version="1.0" encoding="iso-8859-1"?>
<!DOCTYPE svg PUBLIC "-//W3C//DTD SVG 1.1//EN" "http://www.w3.org/Graphics/SVG/1.1/DTD/svg11.dtd">
<svg 
 version="1.1" xmlns="http://www.w3.org/2000/svg" xmlns:xlink="http://www.w3.org/1999/xlink" x="0px" y="0px" width="512px"
	 height="512px" viewBox="0 0 512 512" style="enable-background:new 0 0 512 512;" xml:space="preserve"
><g fill="#ffffff" id="afcae5a789ccd549f9c6e2a2f818c393"><g fill="#ffffff"></g><path style="display: inline; evenodd; clip-rule: evenodd;" d="M340.072,296.845c5.287,5.899-0.826,16.629-10.054,21.464
		c-9.228,4.83-19.689,3.052-23.368-3.971c-3.674-7.026,2.061-14.271,11.293-19.097C327.171,290.406,330.611,286.29,340.072,296.845z
		 M344.076,153.383c-21.069,0-42.091,13.485-38.145,29.024c7.046,27.786,17.075,23.641,38.145,23.641
		c21.07,0,38.146-7.609,38.146-23.641C382.222,166.377,365.146,153.383,344.076,153.383z M166.873,254.151
		c-14.165-3.149-26.784-0.583-29.18,10.195c-2.396,10.783,7.148,22.071,21.313,25.22c14.17,3.145,30.317-2.784,29.987-13.819
		C188.404,256.007,181.042,257.3,166.873,254.151z M445.121,295.256c0,22.761,19.748,41.251,44.142,41.251
		c3.979,0,7.766-0.642,11.448-1.541l-1.137,72.919L110.889,511.096c0,0-35.73,8.796-73.22-55.629
		c-37.757-64.896-30.06-105.782-30.06-105.782l1.885-227.187c0,0-2.483-51.304,15.681-86.009C37.99,11.968,73.336,0.5,73.336,0.5
		l431.7,51.951l-3.13,203.434c-4.023-1.156-8.212-1.973-12.644-1.973C464.869,253.913,445.121,272.402,445.121,295.256z
		 M412.082,296.023c0-33.451,25.391-60.965,57.952-64.333l-4.961-159.142l-327.274,74.333c0,0-33.432,5.962-49.613,27.946
		c-17.474,23.718-17.785,63.632-17.785,63.632l1.264,179.313c0,0-1.594,41.401,17.323,56.222
		c19.233,15.064,58.978,3.514,58.978,3.514l160.065-41.906c-13.042-5.793-21.026-17.47-18.523-28.729
		c2.983-13.417,18.688-16.609,36.313-12.688c17.635,3.916,26.799,2.308,27.528,26.872c0.028,0.942-0.059,1.851-0.219,2.735
		l115.345-30.2l0.32-33.423C436.841,356.235,412.082,329.043,412.082,296.023z"></path></g></svg>