<?xml version="1.0" encoding="iso-8859-1"?>
<!DOCTYPE svg PUBLIC "-//W3C//DTD SVG 1.1//EN" "http://www.w3.org/Graphics/SVG/1.1/DTD/svg11.dtd">
<svg 
 version="1.1" xmlns="http://www.w3.org/2000/svg" xmlns:xlink="http://www.w3.org/1999/xlink" x="0px" y="0px" width="512px"
	 height="512px" viewBox="0 0 512 512" style="enable-background:new 0 0 512 512;" xml:space="preserve"
><g fill="#ffffff" id="afcae5a789ccd549f9c6e2a2f818225a"><g fill="#ffffff"></g><path style="display: inline;" d="M474.436,43.728c-58.375-58.375-184.979-79.272-264.251,79.277
		c-34.554,69.108-59.902,140.826-59.902,140.826c-3.915,11.089-12.424,25.463-18.903,31.941s-3.718,17.035,6.13,23.46
		c0,0,21.823,14.227,41.925,34.334c13.616,13.611,21.56,24.074,21.56,24.074c7.113,9.37,16.626,13.338,21.144,8.821
		c4.517-4.517,17.769-9.341,29.447-10.721c0,0,115.949-13.707,176.605-74.363C512.106,217.461,532.815,102.107,474.436,43.728z
		 M362.096,294.052c-8.993-7.298,31.893-39.301,64.588-79.604c32.694-40.3,44.824-73.629,53.817-66.336
		c8.996,7.297-10.222,45.881-42.917,86.181C404.885,274.592,371.089,301.345,362.096,294.052z M182.436,390.679l-43.502,33.592
		c-9.308,7.187-14.779,22.449-12.15,33.911c0,0,4.906,21.413-12.031,38.354c-18.559,18.555-47.143,20.062-63.846,3.358
		c-7.916-7.916-7.99-8.342-7.99-8.342c-1.958-11.598-12.252-21.729-22.867-22.515c0,0,0,0-6.945-6.945
		c-12.531-12.527-11.401-33.961,2.519-47.88c10.971-10.975,17.551-10.418,17.551-10.418c11.72,0.991,28.113-5.004,36.426-13.325
		l53.289-53.285c1.02,0.79,2.052,1.568,3.153,2.289c0.201,0.131,20.361,13.396,38.567,31.606
		C173.374,379.839,179.553,387.141,182.436,390.679z"></path></g></svg>