<?xml version="1.0" encoding="iso-8859-1"?>
<!DOCTYPE svg PUBLIC "-//W3C//DTD SVG 1.1//EN" "http://www.w3.org/Graphics/SVG/1.1/DTD/svg11.dtd">
<svg 
 version="1.1" xmlns="http://www.w3.org/2000/svg" xmlns:xlink="http://www.w3.org/1999/xlink" x="0px" y="0px" width="512px"
	 height="512px" viewBox="0 0 512 512" style="enable-background:new 0 0 512 512;" xml:space="preserve"
><g fill="#ffffff" id="afcae5a789ccd549f9c6e2a2f815d46d"><g fill="#ffffff"></g><path style="display: inline;" d="M280.001,144.519c0,44.188-35.821,80.01-80.009,80.01s-80.009-35.821-80.009-80.01
		c0-44.189,35.821-80.011,80.009-80.011S280.001,100.329,280.001,144.519z M320.006,48.506c1.318,0,2.621,0.043,3.925,0.1
		C314.069,20.589,287.391,0.5,256,0.5c-31.646,0-58.505,20.424-68.165,48.803c3.985-0.506,8.037-0.797,12.156-0.797
		c23.368,0,44.791,8.404,61.449,22.331l0.942-0.816C278.379,56.148,298.846,48.506,320.006,48.506z M272.903,213.304h-2.986
		c-17.816,18.107-42.576,29.36-69.925,29.36c-27.349,0-52.108-11.253-69.921-29.36c-0.338,0-0.729,0-1.02,0
		c-4.987,0-6.487,7.297-3.333,16.216l6.667,18.852c3.154,8.919,9.815,16.219,14.803,16.219s11.648,7.301,14.802,16.22
		l79.209,224.004c3.156,8.916,8.313,8.916,11.47,0l79.209-224.004c3.156-8.919,9.815-16.22,14.803-16.22s11.646-7.3,14.803-16.219
		l6.666-18.852c2.745-7.758,1.959-14.275-1.569-15.848c-13.602,8.239-29.541,12.992-46.572,12.992
		C303.295,226.664,287.086,222.017,272.903,213.304z M320.006,64.508c-18.032,0-34.507,6.646-47.139,17.603
		c14.406,16.797,23.138,38.595,23.138,62.408c0,19.239-5.71,37.161-15.493,52.2c11.342,7.457,24.908,11.81,39.494,11.81
		c39.771,0,72.012-32.242,72.012-72.011C392.018,96.748,359.777,64.508,320.006,64.508z"></path></g></svg>