<?xml version="1.0" encoding="iso-8859-1"?>
<!DOCTYPE svg PUBLIC "-//W3C//DTD SVG 1.1//EN" "http://www.w3.org/Graphics/SVG/1.1/DTD/svg11.dtd">
<svg 
 version="1.1" xmlns="http://www.w3.org/2000/svg" xmlns:xlink="http://www.w3.org/1999/xlink" x="0px" y="0px" width="512px"
	 height="512px" viewBox="0 0 512 512" style="enable-background:new 0 0 512 512;" xml:space="preserve"
><g fill="#ffffff" id="afcae5a789ccd549f9c6e2a2f8187cf6"><g fill="#ffffff"></g><path style="display: inline;" d="M359.571,92.334c11.894-48.659,2.063-92.864,21.533-88.111c19.462,4.757,25.6,48.06,13.706,96.719
		c-0.142,0.574-0.299,1.123-0.449,1.701c5.847-3.709,12.06-7.29,18.664-10.633c44.704-22.606,88.269-26.436,97.313-8.554
		c9.036,17.881-36.242,18.327-80.938,40.924c-8.891,4.496-17.066,9.527-24.564,14.559c-2.974-3.572-6.117-7.119-9.603-10.6
		c-11.926-11.927-24.626-21.45-37.65-28.565C358.286,97.333,358.956,94.858,359.571,92.334z M309.437,279.571l25.217,17.508
		c23.313-19.342,40.666-34.537,48.247-42.114c39.448-39.456,35.506-78.783,0-114.293c-35.505-35.501-89.125-53.732-128.573-14.284
		c-0.141,0.137-0.303,0.312-0.448,0.453l33.467,43.024c10.109,13,7.748,15.362-5.248,5.256l-42.329-32.918
		c-18.514,20.967-48.035,56.51-80.147,97.467l21.579,31.093c17.046,24.548,10.903,30.686-13.645,13.644l-27.713-19.229
		C63.501,364.696-17.403,483.243,3.988,504.631c15.591,15.594,82.934-23.043,156.922-74.629l-16.214-20.847
		c-10.109-13-7.747-15.357,5.248-5.253l22.826,17.762c50.061-35.473,102-75.776,142.226-108.454l-16.061-23.143
		C285.824,271.18,290.548,266.456,309.437,279.571z"></path></g></svg>