<?xml version="1.0" encoding="iso-8859-1"?>
<!DOCTYPE svg PUBLIC "-//W3C//DTD SVG 1.1//EN" "http://www.w3.org/Graphics/SVG/1.1/DTD/svg11.dtd">
<svg 
 version="1.1" xmlns="http://www.w3.org/2000/svg" xmlns:xlink="http://www.w3.org/1999/xlink" x="0px" y="0px" width="512px"
	 height="512px" viewBox="0 0 512 512" style="enable-background:new 0 0 512 512;" xml:space="preserve"
><g id="afcae5a789ccd549f9c6e2a2f817a903"><g></g><g fill="#424242"><path style="display: inline; fill-rule: evenodd; clip-rule: evenodd;" d="M427.745,389.496
		c-15.525,10.124-32.229,13.808-46.981,11.655c-7.164,17.006-15.316,32.741-24.307,46.989H103.66
		c-34.641-54.795-56.738-131.832-58.232-217.563h369.262c-0.231,13.121-0.953,26.025-2.116,38.692
		c20.956-1.127,39.774,8.6,48.772,27.816C475.326,326.917,460.299,368.302,427.745,389.496z M383.94,387.684l-0.064,0.145
		c0.802,0.058,1.617,0.102,2.434,0.115L383.94,387.684z M438.137,332.751c-5.518-8.867-16.32-13.915-28.77-14.615
		c-0.563,2.975-9.381,49.979-19.736,69.771c8.168-0.311,16.826-2.39,25-6.412C437.393,370.31,447.922,348.494,438.137,332.751z
		 M392.628,511.5H78.356L59.87,474.527h351.245L392.628,511.5z M285.594,43.402c0,0,5.633,8.022,1.871,30.25
		c-4.124,24.394-17.83,42.967-17.26,90.664c0.361,30.322,18.068,51.401,18.068,51.401s29.491-39.377,27.368-93.075
		C313.635,71.832,285.594,43.402,285.594,43.402z M211.65,0.5c0,0,5.636,8.016,1.874,30.25
		c-4.127,24.386-17.83,42.967-17.259,90.663c0.361,30.322,18.067,51.394,18.067,51.394s29.492-39.371,27.369-93.068
		C239.694,28.93,211.65,0.5,211.65,0.5z"></path></g></g></svg>